<svg xmlns="http://www.w3.org/2000/svg" width="196" height="76" viewBox="0 0 196 76" role="img" aria-labelledby="title">
  <title id="title">Kiri</title>
  <g fill="#000000" shape-rendering="crispEdges">
    <rect x="0" y="0" width="10" height="10"/>
    <rect x="40" y="0" width="10" height="10"/>
    <rect x="0" y="10" width="10" height="10"/>
    <rect x="30" y="10" width="10" height="10"/>
    <rect x="0" y="20" width="10" height="10"/>
    <rect x="20" y="20" width="10" height="10"/>
    <rect x="0" y="30" width="10" height="10"/>
    <rect x="10" y="30" width="10" height="10"/>
    <rect x="0" y="40" width="10" height="10"/>
    <rect x="20" y="40" width="10" height="10"/>
    <rect x="0" y="50" width="10" height="10"/>
    <rect x="30" y="50" width="10" height="10"/>
    <rect x="0" y="60" width="10" height="10"/>
    <rect x="40" y="60" width="10" height="10"/>
    <rect x="68" y="0" width="10" height="10"/>
    <rect x="58" y="20" width="10" height="10"/>
    <rect x="68" y="20" width="10" height="10"/>
    <rect x="68" y="30" width="10" height="10"/>
    <rect x="68" y="40" width="10" height="10"/>
    <rect x="68" y="50" width="10" height="10"/>
    <rect x="58" y="60" width="10" height="10"/>
    <rect x="68" y="60" width="10" height="10"/>
    <rect x="78" y="60" width="10" height="10"/>
    <rect x="106" y="20" width="10" height="10"/>
    <rect x="116" y="20" width="10" height="10"/>
    <rect x="126" y="20" width="10" height="10"/>
    <rect x="106" y="30" width="10" height="10"/>
    <rect x="136" y="30" width="10" height="10"/>
    <rect x="106" y="40" width="10" height="10"/>
    <rect x="106" y="50" width="10" height="10"/>
    <rect x="106" y="60" width="10" height="10"/>
    <rect x="164" y="0" width="10" height="10"/>
    <rect x="154" y="20" width="10" height="10"/>
    <rect x="164" y="20" width="10" height="10"/>
    <rect x="164" y="30" width="10" height="10"/>
    <rect x="164" y="40" width="10" height="10"/>
    <rect x="164" y="50" width="10" height="10"/>
    <rect x="154" y="60" width="10" height="10"/>
    <rect x="164" y="60" width="10" height="10"/>
    <rect x="174" y="60" width="10" height="10"/>
  </g>
</svg>
